<?xml version="1.0" encoding="UTF-8"?>
<!DOCTYPE svg PUBLIC "-//W3C//DTD SVG 1.1//EN" "http://www.w3.org/Graphics/SVG/1.1/DTD/svg11.dtd">
<!-- Creator: CorelDRAW 2021 (64-Bit) -->
<svg xmlns="http://www.w3.org/2000/svg" xml:space="preserve" width="7.06161cm" height="2.37399cm" version="1.1" style="shape-rendering:geometricPrecision; text-rendering:geometricPrecision; image-rendering:optimizeQuality; fill-rule:evenodd; clip-rule:evenodd"
viewBox="0 0 40733.81 13694"
 xmlns:xlink="http://www.w3.org/1999/xlink"
 xmlns:xodm="http://www.corel.com/coreldraw/odm/2003">
 <defs>
  <style type="text/css">
   <![CDATA[
    .fil0 {fill:#FEFEFE;fill-rule:nonzero}
   ]]>
  </style>
 </defs>
 <g id="Layer_x0020_1">
  <metadata id="CorelCorpID_0Corel-Layer"/>
  <path class="fil0" d="M-0 6729.58l3299.44 -475.89c277.86,752.08 986.96,1128.17 2135.96,1128.17 891.44,0 1337.16,-190.36 1337.16,-571.07 0,-199.64 -104.23,-355.16 -309.7,-464.24 -205.47,-111.44 -573.09,-211.29 -1105.62,-294.82 -2026.02,-311.09 -3328.39,-719.66 -3904.31,-1221.04 -575.97,-503.75 -862.48,-1095.7 -862.48,-1775.84 0,-875.12 413.82,-1604.06 1241.64,-2184.36 827.7,-580.35 2017.25,-870.5 3571.47,-870.5 2355.91,0 3910.13,759.06 4668.44,2279.54l-2934.76 714.99c-306.82,-622.12 -926.17,-933.2 -1858.1,-933.2 -775.67,0 -1163.53,192.66 -1163.53,578.05 0,171.78 86.87,306.41 263.38,401.59 173.68,95.18 512.29,183.38 1015.92,269.27 1386.31,229.81 2370.33,434.07 2952.12,612.83 581.74,176.4 1068.01,485.18 1455.76,926.22 387.86,438.74 581.8,956.39 581.8,1552.95 0,940.18 -474.68,1703.91 -1423.97,2288.88 -949.3,584.97 -2196.76,877.48 -3739.39,877.48 -2818.99,0 -4561.38,-947.16 -5221.22,-2839.01zm21646.12 2699.7l-2900.04 0 -3183.67 -4097.2c-410.99,-526.94 -813.34,-1167.63 -1212.68,-1928.99 188.11,598.87 280.69,1107.23 280.69,1525.09l0 4501.1 -2882.62 0 0 -9290.04 3351.52 0 2700.34 3403.09c538.3,675.53 943.47,1272.09 1218.51,1785.13 -182.4,-793.9 -272.09,-1606.37 -272.09,-2437.41l0 -2750.81 2900.04 0 0 9290.04zm6772.62 -7061.55l0 7061.55 -3368.95 0 0 -7061.55 -2396.4 0 0 -2228.49 8161.81 0 0 2228.49 -2396.46 0zm12315.07 4874.83l0 2186.72 -9620.51 0 0 -1768.86 5108.33 -5376.21 -4726.29 0 0 -2144.96 9082.2 0 0 1796.72 -4978.14 5306.59 5134.41 0z"/>
  <path class="fil0" d="M812.82 12059.82l330.53 -29.71c15.46,133.71 52.03,243.25 109.54,329.31 57.57,85.43 146.75,154.76 267.42,208.01 120.73,52.61 256.92,79.2 407.94,79.2 134.34,0 252.54,-19.79 355.33,-60.05 102.73,-40.21 178.88,-95.29 229,-165.26 50.13,-69.91 75.51,-146.05 75.51,-227.79 0,-82.95 -24.11,-155.34 -72.39,-217.87 -48.28,-61.89 -128.17,-113.92 -239.56,-156.61 -71.18,-27.23 -229.06,-70.55 -473.52,-129.38 -244.52,-58.78 -415.38,-113.87 -513.15,-165.9 -126.9,-66.86 -220.99,-149.8 -282.88,-248.21 -62.53,-98.41 -93.5,-209.22 -93.5,-331.16 0,-134.92 38.42,-260.61 114.5,-376.96 76.14,-116.98 186.95,-205.53 333.64,-266.21 146.11,-60.63 308.89,-90.97 487.77,-90.97 196.87,0 370.79,31.55 521.23,95.35 150.44,63.11 266.15,156.61 347.25,280.4 81.1,123.15 124.42,263.04 130.6,419.07l-337.97 25.96c-17.94,-167.74 -79.2,-294.65 -183.84,-380.08 -104.58,-86.01 -259.34,-128.75 -463.6,-128.75 -212.97,0 -368.31,38.99 -465.51,117.04 -97.2,77.99 -146.11,172.07 -146.11,282.25 0,95.29 34.67,173.92 103.37,235.81 68.12,61.32 244.52,125.06 530.51,189.43 285.99,65.01 482.18,121.31 588.66,169.59 154.13,71.18 268.63,160.94 342.29,270.54 73.66,108.96 110.18,234.6 110.18,376.96 0,141.73 -40.21,274.23 -121.31,399.28 -81.1,125 -196.82,222.2 -348.47,291.53 -151.71,69.34 -321.93,104 -511.94,104 -240.19,0 -441.34,-35.3 -603.54,-105.27 -162.78,-69.91 -289.69,-175.18 -381.92,-316.28 -92.81,-140.52 -141.09,-299.61 -146.05,-477.27zm3866.23 230.27l337.97 44.59c-52.61,196.24 -151.02,349.1 -294.65,457.43 -143.57,108.33 -326.83,162.78 -550.3,162.78 -280.98,0 -503.87,-86.64 -668.49,-259.98 -164.63,-172.7 -247,-415.96 -247,-728.54 0,-323.14 82.95,-574.47 249.48,-752.71 166.53,-178.88 382.56,-268.06 648.07,-268.06 256.92,0 466.72,87.28 629.56,262.46 162.78,175.18 244.46,421.55 244.46,739.1 0,19.21 -0.58,48.28 -1.85,86.7l-1435.45 0c12.4,211.06 71.82,373.21 179.51,485.29 107.06,112.02 241.41,168.32 401.71,168.32 119.52,0 221.62,-31.55 305.84,-94.66 84.79,-63.16 151.65,-164.05 201.14,-302.72zm-1069.62 -523.65l1073.37 0c-14.25,-162.21 -55.72,-283.51 -123.21,-364.62 -103.37,-125.63 -238.29,-188.8 -403.61,-188.8 -149.75,0 -275.44,50.13 -377.54,150.44 -101.52,100.25 -157.88,234.6 -169.01,402.98zm1816.74 1147.61l0 -1927.55 293.44 0 0 295.22c74.87,-136.77 144.21,-227.16 207.95,-270.48 63.74,-43.95 133.71,-65.64 209.85,-65.64 110.18,0 222.2,34.67 336.12,103.37l-116.35 301.45c-79.26,-44.53 -158.51,-66.8 -237.71,-66.8 -71.18,0 -134.98,21.63 -191.28,64.37 -56.36,42.69 -96.56,102.1 -120.73,178.24 -36.51,115.77 -54.45,242.67 -54.45,380.71l0 1007.1 -326.83 0zm1240.48 -2287.84l0 -371.37 326.83 0 0 371.37 -326.83 0zm0 2287.84l0 -1927.55 326.83 0 0 1927.55 -326.83 0zm2084.1 -241.41c-121.31,103.37 -238.29,175.82 -350.31,218.5 -112.08,42.69 -232.18,63.74 -360.93,63.74 -211.7,0 -374.48,-51.34 -488.35,-154.76 -113.92,-102.73 -170.86,-234.6 -170.86,-394.9 0,-94.08 21.63,-180.15 64.37,-258.13 43.32,-77.99 99.68,-139.88 168.95,-186.89 69.97,-47.07 147.96,-82.95 235.23,-107.12 64.37,-16.73 161.57,-32.82 290.96,-48.92 263.67,-30.92 458.7,-68.7 583.06,-112.02 1.27,-44.59 1.9,-73.03 1.9,-84.79 0,-132.5 -30.98,-225.95 -92.87,-280.4 -83.58,-73.66 -208.01,-110.18 -372.64,-110.18 -154.13,0 -268.06,27.23 -341.08,81.05 -73.66,53.88 -127.48,149.23 -162.78,286.63l-319.39 -44.59c29.07,-136.77 76.72,-247.58 143.57,-331.8 66.86,-84.16 163.42,-148.53 289.69,-194.34 125.69,-45.22 272.38,-68.12 438.28,-68.12 164.63,0 298.97,19.21 402.34,58.2 102.73,38.99 178.88,87.28 227.16,146.11 48.28,58.78 82.37,133.08 102.16,222.83 10.5,55.72 16.09,155.98 16.09,300.18l0 433.32c0,302.72 6.81,493.94 20.42,575.05 12.98,81.1 40.26,158.46 79.83,232.75l-341.66 0c-32.82,-68.7 -53.88,-149.17 -63.16,-241.41zm-25.96 -724.22c-118.89,48.28 -297.13,89.12 -534.84,122.52 -134.92,19.21 -230.27,40.9 -285.99,65.01 -55.66,24.17 -98.41,59.41 -128.75,105.21 -30.34,46.44 -45.8,97.83 -45.8,154.76 0,86.06 32.82,158.46 99.04,216.02 66.22,57.57 162.78,86.7 289.69,86.7 125.69,0 237.71,-27.28 336.12,-82.37 97.83,-54.45 170.22,-129.33 216.02,-224.04 35.3,-73.66 52.61,-181.99 52.61,-324.99l1.9 -118.83zm832.49 965.62l0 -1927.55 293.44 0 0 273.59c141.15,-209.85 345.41,-314.49 612.19,-314.49 116.35,0 222.83,21.05 320.03,62.53 97.2,41.47 170.22,96.56 218.5,164.05 48.28,67.49 82.31,147.96 101.52,240.77 11.77,60.68 17.94,166.53 17.94,317.55l0 1183.55 -326.83 0 0 -1171.15c0,-133.08 -12.4,-232.75 -37.78,-298.34 -25.38,-65.64 -70.55,-118.25 -134.92,-157.88 -64.37,-38.99 -140.52,-58.78 -227.16,-58.78 -138.67,0 -258.13,43.95 -359.02,132.44 -100.89,87.91 -151.07,255.65 -151.07,502.02l0 1051.68 -326.83 0zm2005.6 159.73l315.64 44.53c13.04,97.83 50.18,169.01 110.81,214.18 81.1,60.05 191.91,90.39 332.43,90.39 151.02,0 268,-30.34 350.37,-90.39 82.31,-60.05 138.04,-144.84 167.11,-253.17 16.73,-66.22 24.75,-205.53 23.53,-417.8 -143,168.38 -320.66,252.54 -533.57,252.54 -264.94,0 -470.47,-95.35 -615.31,-286.57 -145.48,-190.7 -217.87,-419.7 -217.87,-686.49 0,-183.84 33.4,-353.48 99.62,-508.83 66.28,-155.34 162.84,-274.86 289.11,-359.66 126.27,-84.79 274.8,-126.9 445.66,-126.9 227.16,0 414.74,92.87 562.07,278.55l0 -237.66 300.82 0 0 1664.46c0,300.24 -30.34,512.58 -91.6,637.58 -60.68,125.06 -157.88,224.1 -289.69,296.49 -132.5,72.45 -295.28,108.96 -488.41,108.96 -229.64,0 -414.74,-51.4 -555.84,-154.76 -141.79,-102.73 -209.85,-258.13 -204.89,-465.45zm267.36 -1156.32c0,251.96 50.18,435.8 150.44,551.51 100.89,115.77 226.58,173.97 377.6,173.97 150.44,0 276.07,-57.57 378.23,-172.7 101.47,-115.14 152.23,-295.92 152.23,-542.22 0,-235.23 -52.61,-412.9 -157.19,-532.36 -104.64,-119.46 -230.91,-178.88 -378.23,-178.88 -145.48,0 -268.63,58.78 -370.79,176.4 -101.52,117.62 -152.28,292.17 -152.28,524.29zm3540.09 996.6l0 -2347.26 -876.5 0 0 -311.95 2105.85 0 0 311.95 -876.5 0 0 2347.26 -352.85 0zm1410.07 0l0 -1927.55 293.44 0 0 295.22c74.87,-136.77 144.21,-227.16 207.95,-270.48 63.74,-43.95 133.71,-65.64 209.85,-65.64 110.18,0 222.2,34.67 336.12,103.37l-116.35 301.45c-79.26,-44.53 -158.51,-66.8 -237.71,-66.8 -71.18,0 -134.98,21.63 -191.28,64.37 -56.36,42.69 -96.56,102.1 -120.73,178.24 -36.51,115.77 -54.45,242.67 -54.45,380.71l0 1007.1 -326.83 0zm2499.54 -241.41c-121.31,103.37 -238.29,175.82 -350.31,218.5 -112.08,42.69 -232.18,63.74 -360.93,63.74 -211.7,0 -374.48,-51.34 -488.35,-154.76 -113.92,-102.73 -170.86,-234.6 -170.86,-394.9 0,-94.08 21.63,-180.15 64.37,-258.13 43.32,-77.99 99.68,-139.88 168.95,-186.89 69.97,-47.07 147.96,-82.95 235.23,-107.12 64.37,-16.73 161.57,-32.82 290.96,-48.92 263.67,-30.92 458.7,-68.7 583.06,-112.02 1.27,-44.59 1.9,-73.03 1.9,-84.79 0,-132.5 -30.98,-225.95 -92.87,-280.4 -83.58,-73.66 -208.01,-110.18 -372.64,-110.18 -154.13,0 -268.06,27.23 -341.08,81.05 -73.66,53.88 -127.48,149.23 -162.78,286.63l-319.39 -44.59c29.07,-136.77 76.72,-247.58 143.57,-331.8 66.86,-84.16 163.42,-148.53 289.69,-194.34 125.69,-45.22 272.38,-68.12 438.28,-68.12 164.63,0 298.97,19.21 402.34,58.2 102.73,38.99 178.88,87.28 227.16,146.11 48.28,58.78 82.37,133.08 102.16,222.83 10.5,55.72 16.09,155.98 16.09,300.18l0 433.32c0,302.72 6.81,493.94 20.42,575.05 12.98,81.1 40.26,158.46 79.83,232.75l-341.66 0c-32.82,-68.7 -53.88,-149.17 -63.16,-241.41zm-25.96 -724.22c-118.89,48.28 -297.13,89.12 -534.84,122.52 -134.92,19.21 -230.27,40.9 -285.99,65.01 -55.66,24.17 -98.41,59.41 -128.75,105.21 -30.34,46.44 -45.8,97.83 -45.8,154.76 0,86.06 32.82,158.46 99.04,216.02 66.22,57.57 162.78,86.7 289.69,86.7 125.69,0 237.71,-27.28 336.12,-82.37 97.83,-54.45 170.22,-129.33 216.02,-224.04 35.3,-73.66 52.61,-181.99 52.61,-324.99l1.9 -118.83zm832.49 -1322.22l0 -371.37 326.83 0 0 371.37 -326.83 0zm0 2287.84l0 -1927.55 326.83 0 0 1927.55 -326.83 0zm825.1 0l0 -1927.55 293.44 0 0 273.59c141.15,-209.85 345.41,-314.49 612.19,-314.49 116.35,0 222.83,21.05 320.03,62.53 97.2,41.47 170.22,96.56 218.5,164.05 48.28,67.49 82.31,147.96 101.52,240.77 11.77,60.68 17.94,166.53 17.94,317.55l0 1183.55 -326.83 0 0 -1171.15c0,-133.08 -12.4,-232.75 -37.78,-298.34 -25.38,-65.64 -70.55,-118.25 -134.92,-157.88 -64.37,-38.99 -140.52,-58.78 -227.16,-58.78 -138.67,0 -258.13,43.95 -359.02,132.44 -100.89,87.91 -151.07,255.65 -151.07,502.02l0 1051.68 -326.83 0zm2065.59 -2287.84l0 -371.37 326.83 0 0 371.37 -326.83 0zm0 2287.84l0 -1927.55 326.83 0 0 1927.55 -326.83 0zm825.05 0l0 -1927.55 293.44 0 0 273.59c141.15,-209.85 345.41,-314.49 612.19,-314.49 116.35,0 222.83,21.05 320.03,62.53 97.2,41.47 170.22,96.56 218.5,164.05 48.28,67.49 82.31,147.96 101.52,240.77 11.77,60.68 17.94,166.53 17.94,317.55l0 1183.55 -326.83 0 0 -1171.15c0,-133.08 -12.4,-232.75 -37.78,-298.34 -25.38,-65.64 -70.55,-118.25 -134.92,-157.88 -64.37,-38.99 -140.52,-58.78 -227.16,-58.78 -138.67,0 -258.13,43.95 -359.02,132.44 -100.89,87.91 -151.07,255.65 -151.07,502.02l0 1051.68 -326.83 0zm2005.6 159.73l315.64 44.53c13.04,97.83 50.18,169.01 110.81,214.18 81.1,60.05 191.91,90.39 332.43,90.39 151.02,0 268,-30.34 350.37,-90.39 82.31,-60.05 138.04,-144.84 167.11,-253.17 16.73,-66.22 24.75,-205.53 23.53,-417.8 -143,168.38 -320.66,252.54 -533.57,252.54 -264.94,0 -470.47,-95.35 -615.31,-286.57 -145.48,-190.7 -217.87,-419.7 -217.87,-686.49 0,-183.84 33.4,-353.48 99.62,-508.83 66.28,-155.34 162.84,-274.86 289.11,-359.66 126.27,-84.79 274.8,-126.9 445.66,-126.9 227.16,0 414.74,92.87 562.07,278.55l0 -237.66 300.82 0 0 1664.46c0,300.24 -30.34,512.58 -91.6,637.58 -60.68,125.06 -157.88,224.1 -289.69,296.49 -132.5,72.45 -295.28,108.96 -488.41,108.96 -229.64,0 -414.74,-51.4 -555.84,-154.76 -141.79,-102.73 -209.85,-258.13 -204.89,-465.45zm267.36 -1156.32c0,251.96 50.18,435.8 150.44,551.51 100.89,115.77 226.58,173.97 377.6,173.97 150.44,0 276.07,-57.57 378.23,-172.7 101.47,-115.14 152.23,-295.92 152.23,-542.22 0,-235.23 -52.61,-412.9 -157.19,-532.36 -104.64,-119.46 -230.91,-178.88 -378.23,-178.88 -145.48,0 -268.63,58.78 -370.79,176.4 -101.52,117.62 -152.28,292.17 -152.28,524.29zm4825.16 63.74l352.79 89.18c-73.66,289.05 -206.1,508.83 -397.38,660.48 -191.28,151.65 -425.24,227.79 -701.95,227.79 -285.99,0 -518.75,-58.2 -698.26,-175.18 -179.51,-116.41 -315.64,-285.36 -409.15,-506.35 -93.45,-221.62 -140.52,-458.7 -140.52,-712.51 0,-276.65 52.61,-518.06 158.46,-724.22 105.85,-206.1 256.29,-362.71 451.26,-469.83 195.03,-107.06 409.78,-160.3 643.81,-160.3 266.15,0 489.62,67.49 670.34,203.05 181.36,135.56 307.68,325.57 378.87,570.72l-345.41 81.68c-61.32,-193.12 -151.07,-334.28 -268.06,-422.13 -116.98,-88.54 -264.31,-132.5 -441.97,-132.5 -203.62,0 -374.48,48.92 -511.31,146.75 -136.77,97.77 -233.33,229.64 -288.42,394.27 -55.72,165.26 -83.58,335.49 -83.58,510.67 0,225.95 32.82,423.4 98.41,591.77 65.64,169.01 167.74,294.65 306.41,378.23 138.67,83.53 288.48,125 450.05,125 196.82,0 362.71,-56.93 498.9,-170.22 136.19,-113.87 228.43,-282.25 276.71,-506.35zm2061.84 308.89l337.97 44.59c-52.61,196.24 -151.02,349.1 -294.65,457.43 -143.57,108.33 -326.83,162.78 -550.3,162.78 -280.98,0 -503.87,-86.64 -668.49,-259.98 -164.63,-172.7 -247,-415.96 -247,-728.54 0,-323.14 82.95,-574.47 249.48,-752.71 166.53,-178.88 382.56,-268.06 648.07,-268.06 256.92,0 466.72,87.28 629.56,262.46 162.78,175.18 244.46,421.55 244.46,739.1 0,19.21 -0.58,48.28 -1.85,86.7l-1435.45 0c12.4,211.06 71.82,373.21 179.51,485.29 107.06,112.02 241.41,168.32 401.71,168.32 119.52,0 221.62,-31.55 305.84,-94.66 84.79,-63.16 151.65,-164.05 201.14,-302.72zm-1069.62 -523.65l1073.37 0c-14.25,-162.21 -55.72,-283.51 -123.21,-364.62 -103.37,-125.63 -238.29,-188.8 -403.61,-188.8 -149.75,0 -275.44,50.13 -377.54,150.44 -101.52,100.25 -157.88,234.6 -169.01,402.98zm1820.43 1147.61l0 -1927.55 293.44 0 0 273.59c141.15,-209.85 345.41,-314.49 612.19,-314.49 116.35,0 222.83,21.05 320.03,62.53 97.2,41.47 170.22,96.56 218.5,164.05 48.28,67.49 82.31,147.96 101.52,240.77 11.77,60.68 17.94,166.53 17.94,317.55l0 1183.55 -326.83 0 0 -1171.15c0,-133.08 -12.4,-232.75 -37.78,-298.34 -25.38,-65.64 -70.55,-118.25 -134.92,-157.88 -64.37,-38.99 -140.52,-58.78 -227.16,-58.78 -138.67,0 -258.13,43.95 -359.02,132.44 -100.89,87.91 -151.07,255.65 -151.07,502.02l0 1051.68 -326.83 0zm2774.98 -291.53l44.59 288.42c-91.6,19.21 -173.97,29.13 -245.73,29.13 -118.25,0 -209.85,-18.57 -275.5,-56.36 -64.95,-37.72 -110.81,-86.64 -137.4,-147.96 -26.59,-61.26 -39.63,-190.01 -39.63,-386.25l0 -1110.46 -241.41 0 0 -252.54 241.41 0 0 -476.64 326.83 -196.24 0 672.88 326.83 0 0 252.54 -326.83 0 0 1129.04c0,93.5 5.6,153.55 17.36,180.15 11.13,26.59 29.71,47.65 55.66,63.74 26.02,15.52 63.16,23.53 111.44,23.53 35.88,0 83.58,-4.33 142.36,-12.98zm1637.29 -332.43l337.97 44.59c-52.61,196.24 -151.02,349.1 -294.65,457.43 -143.57,108.33 -326.83,162.78 -550.3,162.78 -280.98,0 -503.87,-86.64 -668.49,-259.98 -164.63,-172.7 -247,-415.96 -247,-728.54 0,-323.14 82.95,-574.47 249.48,-752.71 166.53,-178.88 382.56,-268.06 648.07,-268.06 256.92,0 466.72,87.28 629.56,262.46 162.78,175.18 244.46,421.55 244.46,739.1 0,19.21 -0.58,48.28 -1.85,86.7l-1435.45 0c12.4,211.06 71.82,373.21 179.51,485.29 107.06,112.02 241.41,168.32 401.71,168.32 119.52,0 221.62,-31.55 305.84,-94.66 84.79,-63.16 151.65,-164.05 201.14,-302.72zm-1069.62 -523.65l1073.37 0c-14.25,-162.21 -55.72,-283.51 -123.21,-364.62 -103.37,-125.63 -238.29,-188.8 -403.61,-188.8 -149.75,0 -275.44,50.13 -377.54,150.44 -101.52,100.25 -157.88,234.6 -169.01,402.98zm1816.74 1147.61l0 -1927.55 293.44 0 0 295.22c74.87,-136.77 144.21,-227.16 207.95,-270.48 63.74,-43.95 133.71,-65.64 209.85,-65.64 110.18,0 222.2,34.67 336.12,103.37l-116.35 301.45c-79.26,-44.53 -158.51,-66.8 -237.71,-66.8 -71.18,0 -134.98,21.63 -191.28,64.37 -56.36,42.69 -96.56,102.1 -120.73,178.24 -36.51,115.77 -54.45,242.67 -54.45,380.71l0 1007.1 -326.83 0z"/>
 </g>
</svg>
